<?xml version="1.0" standalone="no"?>
<!DOCTYPE svg PUBLIC "-//W3C//DTD SVG 20010904//EN"
 "http://www.w3.org/TR/2001/REC-SVG-20010904/DTD/svg10.dtd">
<svg version="1.0" xmlns="http://www.w3.org/2000/svg"
 width="1254.000000pt" height="1254.000000pt" viewBox="0 0 1254.000000 1254.000000"
 preserveAspectRatio="xMidYMid meet">

<g transform="translate(0.000000,1254.000000) scale(0.100000,-0.100000)"
fill="#000000" stroke="none">
<path d="M3507 8459 c-145 -22 -247 -141 -247 -289 0 -114 61 -214 162 -264
l52 -26 2796 0 2796 0 52 26 c65 32 126 101 148 166 24 74 16 181 -19 241 -34
57 -96 111 -156 134 -44 17 -171 18 -2791 18 -1510 0 -2766 -3 -2793 -6z"/>
<path d="M3493 6559 c-138 -26 -232 -142 -233 -284 0 -118 65 -220 169 -269
l46 -21 2795 0 2795 0 49 24 c225 112 221 429 -7 532 l-52 24 -2760 1 c-1518
1 -2779 -2 -2802 -7z"/>
<path d="M3470 4661 c-73 -23 -146 -84 -182 -154 -33 -65 -37 -178 -8 -245 25
-58 100 -134 158 -160 34 -16 230 -17 2782 -20 2046 -2 2762 0 2813 8 120 21
213 109 237 227 28 132 -35 257 -163 325 l-42 23 -2785 2 c-1532 1 -2796 -2
-2810 -6z"/>
</g>
</svg>
